<?xml version="1.0" encoding="utf-8"?>
<!-- Generator: Adobe Illustrator 19.2.1, SVG Export Plug-In . SVG Version: 6.00 Build 0)  -->
<svg version="1.1" id="layer" xmlns="http://www.w3.org/2000/svg" xmlns:xlink="http://www.w3.org/1999/xlink" x="0px" y="0px"
	 viewBox="0 0 652 652" style="enable-background:new 0 0 652 652;" xml:space="preserve">
<style type="text/css">
	.st0{fill:#1B3466;}
</style>
<g>
	<path class="st0" d="M181.6,459.5h-14.2c0.2-2.3,0.9-4.2,2.1-5.5c1.2-1.4,3-2.1,5.3-2.1c2.4,0,4.2,0.7,5.2,2
		C181.1,455.3,181.6,457.2,181.6,459.5 M187.7,463.9v-2.8c0-2.1-0.3-4-0.8-5.7c-0.5-1.7-1.3-3.2-2.4-4.4c-1.1-1.2-2.4-2.2-4-2.9
		c-1.6-0.7-3.5-1-5.7-1c-2,0-3.9,0.3-5.6,1c-1.7,0.7-3.2,1.7-4.4,3c-1.2,1.3-2.2,2.9-2.8,4.8c-0.7,1.9-1,4.1-1,6.5
		c0,4.8,1.2,8.5,3.5,11.1c2.4,2.6,5.8,3.9,10.3,3.9c3.8,0,6.6-0.8,8.6-2.5c2-1.6,3.3-3.9,3.8-6.9h-6c-0.3,1.4-1,2.5-2,3.3
		c-1,0.8-2.5,1.2-4.4,1.2c-2.5,0-4.4-0.8-5.6-2.4c-1.2-1.6-1.9-3.7-2-6.3H187.7z"/>
	<path class="st0" d="M619.8,463.2c0,3.1-0.7,5.5-2.1,7c-1.4,1.5-3.2,2.2-5.5,2.2c-1,0-1.9-0.2-2.7-0.6c-0.8-0.4-1.6-1-2.2-1.8
		c-0.6-0.8-1.1-1.9-1.5-3.1c-0.3-1.3-0.5-2.8-0.5-4.7c0-3.4,0.6-5.9,1.9-7.5c1.3-1.6,3-2.5,5.3-2.5c1,0,1.9,0.2,2.8,0.5
		c0.9,0.3,1.7,0.8,2.4,1.5c0.7,0.7,1.2,1.7,1.6,2.9c0.4,1.2,0.6,2.7,0.6,4.5V463.2z M625.9,476.7v-39.3h-6.2v13.9
		c-1.1-1.3-2.2-2.3-3.4-2.8c-1.2-0.6-2.4-0.9-3.7-1.1c-0.4,0-0.8-0.1-1.2-0.1c-0.4,0-0.7,0-1.1,0c-1.9,0.1-3.6,0.5-5,1.3
		c-1.4,0.8-2.7,1.9-3.6,3.2c-1,1.3-1.7,2.9-2.2,4.7c-0.5,1.8-0.8,3.8-0.8,5.9c0,2.2,0.3,4.3,0.7,6.1c0.5,1.9,1.2,3.5,2.2,4.8
		c1,1.3,2.2,2.4,3.7,3.1c1.5,0.7,3.3,1.1,5.3,1.1c2,0,3.7-0.4,5.2-1.2c1.5-0.8,2.8-2,4-3.6v4H625.9z"/>
	<path class="st0" d="M586.5,463.2c0,3.1-0.7,5.5-2.1,7c-1.4,1.5-3.2,2.2-5.5,2.2c-1,0-1.9-0.2-2.7-0.6c-0.8-0.4-1.6-1-2.2-1.8
		c-0.6-0.8-1.1-1.9-1.5-3.1c-0.3-1.3-0.5-2.8-0.5-4.7c0-3.4,0.6-5.9,1.9-7.5c1.3-1.6,3-2.5,5.3-2.5c1,0,1.9,0.2,2.8,0.5
		c0.9,0.3,1.7,0.8,2.4,1.5c0.7,0.7,1.2,1.7,1.6,2.9c0.4,1.2,0.6,2.7,0.6,4.5V463.2z M592.6,476.7v-39.3h-6.2v13.9
		c-1.1-1.3-2.2-2.3-3.4-2.8c-1.2-0.6-2.4-0.9-3.7-1.1c-0.4,0-0.8-0.1-1.1-0.1c-0.4,0-0.7,0-1.1,0c-1.9,0.1-3.6,0.5-5,1.3
		c-1.4,0.8-2.6,1.9-3.6,3.2c-1,1.3-1.7,2.9-2.2,4.7c-0.5,1.8-0.8,3.8-0.8,5.9c0,2.2,0.2,4.3,0.7,6.1c0.5,1.9,1.2,3.5,2.2,4.8
		c1,1.3,2.2,2.4,3.7,3.1c1.5,0.7,3.3,1.1,5.3,1.1c2,0,3.7-0.4,5.2-1.2c1.5-0.8,2.8-2,4-3.6v4H592.6z"/>
	<path class="st0" d="M534.8,448v19c0,3.6,0.7,6.2,2.2,7.9c1.4,1.7,3.8,2.6,7.1,2.6c1.8,0,3.4-0.4,4.9-1.2c1.5-0.8,3-2.1,4.3-3.9
		v4.2h6.1V448h-6.2v17.1c0,1.1-0.2,2.1-0.7,3c-0.4,0.9-1,1.6-1.7,2.3c-0.7,0.6-1.5,1.1-2.4,1.4c-0.9,0.3-1.8,0.5-2.6,0.5
		c-1.6,0-2.8-0.4-3.6-1.3c-0.8-0.9-1.2-2.5-1.2-4.9v-18H534.8z"/>
	<path class="st0" d="M499.2,464c0.3,4.7,1.7,8.1,4.2,10.4c2.4,2.2,5.9,3.3,10.4,3.3c4.3,0,7.7-1.2,10.2-3.6s3.7-5.9,3.7-10.6v-26.1
		H521V463c0,2.9-0.6,5.1-1.7,6.6c-1.1,1.5-3,2.3-5.7,2.3c-1.4,0-2.5-0.2-3.5-0.6c-0.9-0.4-1.7-0.9-2.3-1.6c-0.6-0.7-1.1-1.5-1.4-2.5
		c-0.3-1-0.5-2.1-0.7-3.3H499.2z"/>
	<path class="st0" d="M431.4,467.9c0.1,1.9,0.5,3.4,1.3,4.7c0.7,1.2,1.7,2.2,2.9,2.9c1.2,0.7,2.6,1.3,4.1,1.6
		c1.5,0.3,3.1,0.5,4.7,0.5c4,0,7-0.8,9-2.4c2-1.6,3-3.7,3-6.3c0-1.2-0.1-2.3-0.4-3.3c-0.3-1-0.8-1.9-1.6-2.6c-0.7-0.7-1.7-1.4-3-1.9
		c-1.3-0.5-2.8-0.9-4.7-1.3l-3.6-0.6c-1-0.2-1.8-0.4-2.5-0.6c-0.7-0.2-1.2-0.4-1.6-0.7c-0.4-0.3-0.6-0.6-0.8-1
		c-0.1-0.4-0.2-0.9-0.2-1.5c0-0.4,0.1-0.8,0.2-1.2c0.2-0.4,0.5-0.8,0.9-1.1c0.5-0.3,1.1-0.6,1.8-0.8c0.8-0.2,1.8-0.3,3-0.3
		c2.1,0,3.6,0.3,4.5,1c0.9,0.7,1.6,1.8,2,3.2l5.6-0.8c-0.3-1.1-0.6-2.1-1.1-3.1c-0.5-1-1.2-1.9-2.1-2.7c-0.9-0.8-2.1-1.4-3.6-1.8
		c-1.5-0.4-3.3-0.7-5.5-0.7c-1.7,0-3.3,0.2-4.7,0.6c-1.4,0.4-2.7,1-3.7,1.7c-1,0.8-1.9,1.7-2.4,2.7c-0.6,1.1-0.9,2.3-0.9,3.6
		c0,1.7,0.3,3.1,0.9,4.1c0.6,1,1.5,1.8,2.6,2.5c1.2,0.6,2.6,1.1,4.3,1.5c1.7,0.4,3.7,0.8,6,1.2c1.8,0.3,2.9,0.8,3.5,1.4
		c0.6,0.7,0.9,1.5,0.9,2.4c0,1.2-0.5,2.1-1.4,2.7s-2.4,0.9-4.5,0.9c-0.9,0-1.8-0.1-2.6-0.2c-0.8-0.1-1.5-0.4-2.1-0.7
		c-0.6-0.4-1.1-0.9-1.5-1.5c-0.4-0.6-0.7-1.4-0.8-2.3H431.4z"/>
	<path class="st0" d="M402.4,467.9c0.1,1.9,0.5,3.4,1.3,4.7c0.7,1.2,1.7,2.2,2.9,2.9c1.2,0.7,2.6,1.3,4.1,1.6
		c1.5,0.3,3.1,0.5,4.7,0.5c4,0,7-0.8,9-2.4c2-1.6,3-3.7,3-6.3c0-1.2-0.1-2.3-0.4-3.3c-0.3-1-0.8-1.9-1.6-2.6c-0.7-0.7-1.7-1.4-3-1.9
		c-1.3-0.5-2.8-0.9-4.7-1.3l-3.6-0.6c-1-0.2-1.8-0.4-2.5-0.6c-0.7-0.2-1.2-0.4-1.6-0.7c-0.4-0.3-0.6-0.6-0.8-1
		c-0.1-0.4-0.2-0.9-0.2-1.5c0-0.4,0.1-0.8,0.2-1.2c0.2-0.4,0.5-0.8,0.9-1.1c0.5-0.3,1.1-0.6,1.8-0.8c0.8-0.2,1.8-0.3,3-0.3
		c2.1,0,3.6,0.3,4.5,1c0.9,0.7,1.6,1.8,2,3.2l5.6-0.8c-0.3-1.1-0.6-2.1-1.1-3.1c-0.5-1-1.2-1.9-2.1-2.7c-0.9-0.8-2.1-1.4-3.6-1.8
		c-1.5-0.4-3.3-0.7-5.5-0.7c-1.7,0-3.3,0.2-4.7,0.6c-1.4,0.4-2.7,1-3.7,1.7c-1,0.8-1.9,1.7-2.4,2.7c-0.6,1.1-0.9,2.3-0.9,3.6
		c0,1.7,0.3,3.1,0.9,4.1c0.6,1,1.5,1.8,2.6,2.5c1.2,0.6,2.6,1.1,4.3,1.5c1.7,0.4,3.7,0.8,6,1.2c1.8,0.3,2.9,0.8,3.5,1.4
		c0.6,0.7,0.9,1.5,0.9,2.4c0,1.2-0.5,2.1-1.4,2.7c-0.9,0.6-2.4,0.9-4.5,0.9c-0.9,0-1.8-0.1-2.6-0.2c-0.8-0.1-1.5-0.4-2.1-0.7
		c-0.6-0.4-1.1-0.9-1.5-1.5c-0.4-0.6-0.7-1.4-0.8-2.3H402.4z"/>
	<path class="st0" d="M391.5,462.3c0,3.2-0.6,5.6-1.8,7.5c-1.2,1.8-3.1,2.7-5.8,2.7c-2.7,0-4.6-0.9-5.8-2.8
		c-1.2-1.8-1.8-4.3-1.8-7.4c0-3.1,0.6-5.5,1.8-7.4c1.2-1.8,3.1-2.7,5.8-2.7s4.6,0.9,5.8,2.7C390.9,456.7,391.5,459.2,391.5,462.3
		 M397.9,462.2c0-2.2-0.3-4.2-0.9-6.1c-0.6-1.8-1.5-3.4-2.7-4.8c-1.2-1.3-2.7-2.4-4.4-3.1c-1.8-0.8-3.8-1.1-6-1.1
		c-2.2,0-4.2,0.4-6,1.1c-1.8,0.7-3.2,1.8-4.4,3.1s-2.1,2.9-2.8,4.8c-0.6,1.9-1,3.9-1,6.2c0,4.8,1.2,8.6,3.7,11.2
		c2.4,2.6,5.9,4,10.3,4c2.1,0,4-0.3,5.7-1c1.7-0.7,3.2-1.6,4.5-2.9c1.3-1.3,2.2-2.9,2.9-4.8C397.6,466.9,397.9,464.7,397.9,462.2"/>
	<path class="st0" d="M350.6,448v28.6h6.2v-16.8c0-0.8,0.1-1.6,0.5-2.4c0.3-0.8,0.8-1.5,1.4-2.1c0.6-0.6,1.3-1.1,2.2-1.5
		c0.9-0.4,1.9-0.6,3.1-0.6c0.5,0,1,0,1.5,0.1c0.5,0,0.9,0.1,1.3,0.2l0.7-5.7c-0.4-0.1-0.8-0.1-1.2-0.2c-0.4,0-0.9-0.1-1.6-0.1
		c-1.6,0-3,0.4-4.4,1.2c-1.4,0.8-2.6,2-3.6,3.5V448H350.6z"/>
	<path class="st0" d="M338.6,466.6c-0.3,1.9-0.9,3.3-1.9,4.3c-1,1-2.4,1.5-4.3,1.5c-1.3,0-2.4-0.3-3.3-0.8c-0.9-0.5-1.6-1.2-2.2-2.1
		c-0.5-0.9-0.9-2-1.2-3.2c-0.3-1.3-0.4-2.6-0.4-4c0-1.2,0.1-2.5,0.4-3.7c0.2-1.2,0.6-2.3,1.2-3.2c0.5-0.9,1.3-1.7,2.2-2.3
		c0.9-0.6,2.1-0.9,3.4-0.9c1.9,0,3.3,0.5,4.1,1.6c0.8,1.1,1.4,2.4,1.7,4l6.2-0.9c-0.2-1.3-0.6-2.5-1.1-3.7c-0.5-1.2-1.2-2.2-2.1-3.1
		c-0.9-0.9-2.1-1.6-3.4-2.1c-1.4-0.5-3.1-0.8-5.1-0.8c-2.2,0-4.1,0.4-5.9,1.1c-1.7,0.7-3.2,1.8-4.4,3.1c-1.2,1.3-2.1,3-2.7,4.8
		c-0.6,1.9-0.9,4-0.9,6.3c0,2.3,0.3,4.3,0.8,6.2c0.5,1.9,1.4,3.4,2.5,4.8c1.1,1.3,2.5,2.3,4.2,3.1c1.7,0.7,3.7,1.1,6,1.1
		c3.8,0,6.8-1,8.8-2.9c2.1-1.9,3.3-4.6,3.6-8H338.6z"/>
	<path class="st0" d="M299.6,448v28.6h6.2v-16.8c0-0.8,0.2-1.6,0.5-2.4c0.3-0.8,0.8-1.5,1.4-2.1c0.6-0.6,1.3-1.1,2.2-1.5
		c0.9-0.4,1.9-0.6,3.1-0.6c0.5,0,1,0,1.5,0.1c0.5,0,0.9,0.1,1.3,0.2l0.7-5.7c-0.4-0.1-0.8-0.1-1.2-0.2c-0.4,0-0.9-0.1-1.6-0.1
		c-1.6,0-3,0.4-4.4,1.2c-1.4,0.8-2.6,2-3.6,3.5V448H299.6z"/>
	<path class="st0" d="M287,462.3c0,3.2-0.6,5.6-1.8,7.5c-1.2,1.8-3.1,2.7-5.8,2.7c-2.7,0-4.6-0.9-5.8-2.8c-1.2-1.8-1.8-4.3-1.8-7.4
		c0-3.1,0.6-5.5,1.8-7.4c1.2-1.8,3.1-2.7,5.8-2.7s4.5,0.9,5.8,2.7C286.4,456.7,287,459.2,287,462.3 M293.5,462.2
		c0-2.2-0.3-4.2-0.9-6.1c-0.6-1.8-1.5-3.4-2.7-4.8c-1.2-1.3-2.7-2.4-4.4-3.1c-1.8-0.8-3.8-1.1-6-1.1c-2.2,0-4.2,0.4-6,1.1
		c-1.8,0.7-3.2,1.8-4.4,3.1c-1.2,1.3-2.1,2.9-2.8,4.8c-0.6,1.9-1,3.9-1,6.2c0,4.8,1.2,8.6,3.7,11.2c2.4,2.6,5.9,4,10.3,4
		c2.1,0,4-0.3,5.7-1c1.7-0.7,3.2-1.6,4.5-2.9c1.3-1.3,2.2-2.9,2.9-4.8C293.1,466.9,293.5,464.7,293.5,462.2"/>
	<polygon class="st0" points="252.1,437.4 252.1,465.8 234.2,437.4 228.1,437.4 228.1,476.7 234.5,476.7 234.5,448.4 252.5,476.7 
		258.6,476.7 258.6,437.4 	"/>
	<path class="st0" d="M193.8,448v28.6h6.2v-16.8c0-0.8,0.2-1.6,0.5-2.4c0.3-0.8,0.8-1.5,1.4-2.1c0.6-0.6,1.3-1.1,2.2-1.5
		c0.9-0.4,1.9-0.6,3.1-0.6c0.5,0,1,0,1.5,0.1c0.5,0,0.9,0.1,1.3,0.2l0.7-5.7c-0.4-0.1-0.8-0.1-1.2-0.2c-0.4,0-0.9-0.1-1.6-0.1
		c-1.6,0-3,0.4-4.4,1.2c-1.4,0.8-2.6,2-3.6,3.5V448H193.8z"/>
	<path class="st0" d="M130.2,448v28.6h6.2v-17.1c0-1,0.2-1.9,0.6-2.7c0.4-0.9,0.9-1.6,1.6-2.3c0.7-0.7,1.4-1.2,2.4-1.6
		c0.9-0.4,1.9-0.6,3-0.6c1.6,0,2.9,0.5,3.7,1.4c0.8,0.9,1.3,2.6,1.3,4.9v17.9h6.2v-18.9c0-7-3.2-10.6-9.5-10.6
		c-1.8,0-3.5,0.4-5.1,1.2c-1.6,0.8-3,2.1-4.3,3.9V448H130.2z"/>
	<path class="st0" d="M108.7,448v28.6h6.2v-16.8c0-0.8,0.2-1.6,0.5-2.4c0.3-0.8,0.8-1.5,1.4-2.1c0.6-0.6,1.3-1.1,2.2-1.5
		c0.9-0.4,1.9-0.6,3.1-0.6c0.5,0,1,0,1.5,0.1c0.5,0,0.9,0.1,1.3,0.2l0.7-5.7c-0.4-0.1-0.8-0.1-1.2-0.2c-0.4,0-0.9-0.1-1.6-0.1
		c-1.6,0-3,0.4-4.4,1.2c-1.4,0.8-2.6,2-3.6,3.5V448H108.7z"/>
	<path class="st0" d="M95.8,464.8c0,2.4-0.7,4.3-2,5.7c-1.3,1.4-3.3,2.1-6.1,2.1c-1.5,0-2.7-0.3-3.5-1c-0.8-0.7-1.2-1.7-1.2-2.9
		c0-0.7,0.1-1.4,0.3-2c0.2-0.6,0.6-1.1,1.2-1.6c0.6-0.5,1.5-0.8,2.7-1.1c1.2-0.3,2.7-0.5,4.5-0.6l4-0.2V464.8z M101.9,476.7v-17.9
		c0-1.7-0.2-3.2-0.5-4.7c-0.3-1.4-1-2.6-1.8-3.7c-0.9-1-2-1.8-3.5-2.4c-1.5-0.6-3.3-0.9-5.6-0.9c-3.5,0-6.3,0.6-8.3,1.9
		c-2,1.3-3.3,3.3-3.8,6.1l5.7,0.6c0.3-1.2,0.9-2.2,1.8-2.9c0.9-0.7,2.4-1,4.3-1c1.7,0,3,0.4,4.1,1.2c1,0.8,1.6,2.3,1.6,4.5v1.2
		l-4.2,0.2c-1.8,0.1-3.5,0.2-5.3,0.5c-1.7,0.3-3.3,0.8-4.7,1.5c-1.4,0.7-2.5,1.7-3.4,2.9c-0.9,1.2-1.3,2.8-1.3,4.8
		c0,1.5,0.2,2.7,0.7,3.8c0.5,1.1,1.2,2,2,2.7c0.9,0.7,1.9,1.2,3,1.6c1.2,0.3,2.4,0.5,3.8,0.5c2.2,0,4-0.4,5.6-1.3
		c1.5-0.8,2.8-1.9,3.9-3.2v3.7H101.9z"/>
	<polygon class="st0" points="69.7,437.4 62.7,467.1 55.1,437.6 48,437.6 40.6,467.2 33.4,437.4 25.9,437.4 37.2,476.7 43.6,476.7 
		51.4,445.7 59.3,476.7 65.9,476.7 76.7,437.4 	"/>
	<polygon class="st0" points="477.5,450.5 477.5,460.4 467.7,460.4 467.7,463.3 477.5,463.3 477.5,473.1 480.4,473.1 480.4,463.3 
		490.2,463.3 490.2,460.4 480.4,460.4 480.4,450.5 	"/>
	<path class="st0" d="M157.3,239.2c0-6.3-3.8-11.6-8.6-14.4l-70.1-41v30.9l42.8,25.1c5.3,3.1,9.5,7.9,9.7,14.3v0c0,0.1,0,0.7,0,0.9
		v62.2c0.1,7.3,5.9,13.2,13.1,13.2c7.2,0,13-5.9,13.1-13.2v-77.1C157.3,239.4,157.3,239.7,157.3,239.2"/>
	<path class="st0" d="M104.6,270.9c0-6.3-3.8-11.6-8.6-14.4l-70.1-41v30.9l42.8,25.1c5.3,3.1,9.5,7.9,9.7,14.3v0c0,0.1,0,0.7,0,0.9
		v62.2h0c0.1,7.3,5.9,13.2,13.1,13.2c7.2,0,13-5.9,13.1-13.2v-77.1C104.6,271.1,104.6,271.4,104.6,270.9"/>
	<path class="st0" d="M174.4,209.8c5.1,2.7,8.6,8.1,8.6,14.4v-49.7h-68.8L174.4,209.8z"/>
	<path class="st0" d="M52.1,348.5c0-1,0-2.1,0.1-3.1v-43.3c0-0.1,0-0.3,0-0.4c0-0.1,0-0.3,0-0.4v0c-0.2-6.5-4.1-12-9.7-14.3
		L26,277.2v61.5h0.1c1.8,27.5,24.3,49.2,51.8,49.5v0.1h13.3v-0.1C69.6,388.2,52.1,370.5,52.1,348.5"/>
</g>
</svg>
